<?xml version="1.0"?>
<svg xmlns="http://www.w3.org/2000/svg" id="Layer_1" data-name="Layer 1" viewBox="0 0 512 512" width="512" height="512"><title>Currency Exchange</title><path d="M256,172.714A83.286,83.286,0,1,0,339.286,256,83.38,83.38,0,0,0,256,172.714Zm0,76.825a26.289,26.289,0,0,1,6,51.885V308.2a6,6,0,0,1-12,0v-6.772a26.332,26.332,0,0,1-20.292-25.593,6,6,0,0,1,12,0,14.3,14.3,0,0,0,14.152,14.284c.047,0,.093-.007.14-.007s.093.006.14.007a14.288,14.288,0,0,0-.14-28.576,26.29,26.29,0,0,1-6-51.886V203.8a6,6,0,1,1,12,0v5.849a26.332,26.332,0,0,1,20.292,25.593,6,6,0,1,1-12,0A14.292,14.292,0,1,0,256,249.539Z"/><path d="M163.369,163.321a6.6,6.6,0,0,1,.536-.487c3.1-3.071,6.36-5.834,9.755-8.834H83.451C80.137,154,77,151.507,77,148.194V130.035L18.035,189,77,247.965V229.806c0-3.313,3.137-5.806,6.451-5.806h45.556a131.282,131.282,0,0,1,33.924-60.022A7.651,7.651,0,0,1,163.369,163.321Z"/><path d="M435,282.194c0,3.313-3.137,5.806-6.451,5.806H383a131.009,131.009,0,0,1-34.277,60.442c-.036.037-.059.2-.1.237s-.081.11-.118.145c-3.195,3.19-6.56,6.176-10.085,9.176h90.121c3.314,0,6.451,2.493,6.451,5.806v18.159L493.965,323,435,264.035Z"/><path d="M330.962,330.962a6,6,0,0,1,8.486,0l4.823,4.824A118.371,118.371,0,0,0,374.85,262h-6.837a6,6,0,1,1,0-12h6.836a118.533,118.533,0,0,0-30.608-73.755l-4.793,4.793a6,6,0,1,1-8.486-8.486l4.793-4.793A118.533,118.533,0,0,0,262,137.151v6.836a6,6,0,0,1-12,0v-6.836a118.533,118.533,0,0,0-73.755,30.608l4.793,4.793a6,6,0,0,1-8.486,8.486l-4.793-4.793A118.533,118.533,0,0,0,137.151,250h6.836a6,6,0,0,1,0,12h-6.836a118.533,118.533,0,0,0,30.608,73.755l4.793-4.793a6,6,0,1,1,8.486,8.486l-4.793,4.793A118.533,118.533,0,0,0,250,374.849v-6.836a6,6,0,1,1,12,0v6.82a118.369,118.369,0,0,0,73.789-30.559l-4.827-4.826A6,6,0,0,1,330.962,330.962ZM256,351.286A95.286,95.286,0,1,1,351.286,256,95.394,95.394,0,0,1,256,351.286Z"/></svg>
